<?xml version="1.0" encoding="utf-8" ?>
<svg xmlns="http://www.w3.org/2000/svg" xmlns:xlink="http://www.w3.org/1999/xlink" width="1024" height="1024">
	<path fill="white" transform="scale(2 2)" d="M246.593 301.797C240.351 301.307 229.225 298.722 223.226 296.843C189.843 286.388 162.479 257.973 152.514 224.57C143.452 194.191 148.561 160.217 166.226 133.895C182.012 110.374 207.59 93.2674 235.486 87.9534C241.117 86.8808 246.764 86.4115 252.48 86.1256C256.223 85.8622 260.035 86.2834 263.769 86.5535C300.106 89.1821 333.147 109.679 350.571 141.703C376.619 189.581 363.034 249.774 318.925 281.297C301.296 293.897 286.268 298.36 265.408 301.715L265.311 281.104C267.753 280.771 270.185 280.532 272.608 280.066C298.096 275.169 320.837 258.541 333.342 235.793C354.759 196.834 342.632 146.452 306.072 121.461C292.443 112.146 276.119 106.86 259.661 106.136C244.874 105.589 232.463 108.086 219.177 114.132C172.781 135.243 154.054 191.128 178.746 235.629C192.581 260.563 217.874 278.877 246.679 281.096L246.593 301.797Z"/>
	<path fill="white" transform="scale(2 2)" d="M238.057 164.572C240.621 154.405 243.615 144.329 246.336 134.199C247.729 129.012 248.338 124.597 254.739 123.533C261.81 123.267 263.58 126.924 265.136 132.952C267.204 140.962 269.69 148.85 271.796 156.848C272.461 159.374 273.231 161.937 273.596 164.525C286.098 164.523 298.601 164.517 311.103 164.523C312.897 164.524 315.059 164.373 316.795 164.802L317.011 164.856C323.371 166.403 326.507 174.279 321.813 179.167C320.846 180.174 319.599 180.905 318.422 181.636C310.933 186.286 303.815 191.501 296.596 196.553C293.528 198.7 290.122 200.687 287.327 203.165C288.469 206.98 289.929 210.716 291.231 214.479C294.034 222.579 296.735 230.703 299.688 238.75C300.161 240.037 300.75 241.376 300.94 242.741C301.762 248.638 294.73 253.295 289.488 250.726C287.954 249.974 286.596 248.819 285.237 247.796C275.775 240.668 266.294 233.564 256.861 226.399L255.902 225.631C247.224 232.025 238.665 238.576 229.97 244.952C225.738 248.055 221.918 252.929 216.015 250.657C209.557 248.173 211.035 242.684 212.871 237.901C217.223 226.564 220.24 214.659 225.019 203.495C216.334 196.882 206.723 190.573 197.736 184.343C195.382 182.71 191.778 181.018 189.955 179.067C185.395 174.189 188.45 165.651 195.076 164.643C196.769 164.386 198.572 164.519 200.284 164.519C212.869 164.52 225.48 164.22 238.057 164.572Z"/>
	<path fill="white" transform="scale(2 2)" d="M65 444.612L86.9233 341.369L100.816 341.369L122.867 444.612L109.229 444.612L104.513 418.61L83.4818 418.61L78.5108 444.612L65 444.612ZM85.3937 408.285L102.601 408.285L93.9336 361.762L85.3937 408.285ZM149.252 445.631C143.218 445.631 138.375 443.741 134.721 439.959C131.067 436.178 128.985 431.186 128.475 424.983L139.819 421.541C140.499 426.215 141.646 429.72 143.261 432.057C144.875 434.394 147.255 435.562 150.399 435.562C152.863 435.562 154.732 434.861 156.007 433.459C157.282 432.057 157.919 430.166 157.919 427.787C157.919 425.663 157.452 423.751 156.517 422.051C155.582 420.352 154.053 418.61 151.928 416.825L139.31 405.991C136.76 403.782 134.615 401.318 132.873 398.598C131.131 395.879 130.26 392.353 130.26 388.019C130.26 384.11 131.046 380.818 132.618 378.141C134.19 375.464 136.399 373.425 139.246 372.023C142.092 370.621 145.428 369.92 149.252 369.92C155.37 369.92 160.043 371.81 163.272 375.592C166.501 379.373 168.371 383.94 168.881 389.294L159.194 392.735C158.854 390.186 158.344 387.955 157.664 386.044C156.984 384.132 156.007 382.645 154.732 381.582C153.458 380.52 151.801 379.989 149.761 379.989C147.552 379.989 145.789 380.733 144.472 382.22C143.155 383.707 142.496 385.47 142.496 387.509C142.496 388.784 142.772 390.037 143.325 391.269C143.877 392.502 144.833 393.712 146.193 394.902L159.194 406.883C160.978 408.498 162.656 410.24 164.228 412.109C165.8 413.979 167.096 416.103 168.116 418.482C169.135 420.862 169.645 423.623 169.645 426.767C169.645 430.931 168.796 434.415 167.096 437.219C165.397 440.023 163.017 442.126 159.958 443.528C156.899 444.93 153.33 445.631 149.252 445.631ZM199.471 445.631C195.647 445.631 192.567 444.909 190.23 443.465C187.893 442.02 186.194 439.981 185.132 437.347C184.07 434.712 183.539 431.611 183.539 428.042L183.539 379.989L175.763 379.989L175.763 370.939L183.539 370.939L183.539 349.399L197.177 349.399L197.177 370.939L209.031 370.939L209.031 379.989L197.177 379.989L197.177 427.15C197.177 430.039 197.645 432.099 198.579 433.331C199.513 434.564 201.298 435.18 203.932 435.18C204.612 435.18 205.398 435.137 206.29 435.052C207.183 434.967 208.053 434.882 208.903 434.797L208.903 444.867C207.204 445.122 205.631 445.313 204.187 445.44C202.743 445.568 201.17 445.631 199.471 445.631ZM219.482 444.612L219.482 370.939L233.121 370.939L233.121 381.391C235.84 376.888 238.56 373.871 241.278 372.342C243.997 370.812 246.717 370.047 249.436 370.047C249.776 370.047 250.095 370.047 250.392 370.047C250.689 370.047 251.093 370.09 251.603 370.175L251.603 385.215C250.583 384.79 249.414 384.429 248.097 384.132C246.781 383.834 245.442 383.686 244.082 383.686C241.958 383.686 240.025 384.174 238.283 385.151C236.541 386.129 234.82 388.019 233.121 390.823L233.121 444.612L219.482 444.612ZM279.899 445.631C274.46 445.631 270.17 444.527 267.025 442.317C263.881 440.108 261.65 436.964 260.334 432.885C259.017 428.807 258.358 424.006 258.358 418.482L258.358 397.069C258.358 391.546 259.017 386.745 260.334 382.666C261.65 378.587 263.881 375.443 267.025 373.234C270.17 371.024 274.46 369.92 279.899 369.92C285.338 369.92 289.608 371.024 292.709 373.234C295.81 375.443 298.02 378.587 299.337 382.666C300.653 386.745 301.312 391.546 301.312 397.069L301.312 418.482C301.312 424.006 300.653 428.807 299.337 432.885C298.02 436.964 295.81 440.108 292.709 442.317C289.608 444.527 285.338 445.631 279.899 445.631ZM279.899 435.562C282.533 435.562 284.382 434.797 285.443 433.268C286.505 431.738 287.142 429.72 287.355 427.213C287.568 424.707 287.674 422.094 287.674 419.375L287.674 396.304C287.674 393.5 287.568 390.866 287.355 388.402C287.142 385.937 286.505 383.919 285.443 382.347C284.382 380.775 282.533 379.989 279.899 379.989C277.264 379.989 275.396 380.775 274.291 382.347C273.186 383.919 272.528 385.937 272.315 388.402C272.102 390.866 271.996 393.5 271.996 396.304L271.996 419.375C271.996 422.094 272.102 424.707 272.315 427.213C272.528 429.72 273.186 431.738 274.291 433.268C275.396 434.797 277.264 435.562 279.899 435.562ZM309.342 444.612L331.266 341.369L345.159 341.369L367.21 444.612L353.571 444.612L348.855 418.61L327.824 418.61L322.853 444.612L309.342 444.612ZM329.736 408.285L346.943 408.285L338.276 361.762L329.736 408.285ZM377.789 444.612L377.789 341.369L391.427 341.369L391.427 444.612L377.789 444.612ZM426.096 445.631C420.319 445.631 415.857 444.506 412.713 442.254C409.569 440.002 407.381 436.688 406.149 432.312C404.916 427.936 404.301 422.561 404.301 416.188L404.301 399.363C404.301 392.82 404.938 387.382 406.213 383.048C407.487 378.715 409.718 375.443 412.904 373.234C416.091 371.024 420.488 369.92 426.096 369.92C432.3 369.92 436.867 371.194 439.798 373.744C442.73 376.293 444.664 379.968 445.598 384.769C446.532 389.57 447 395.327 447 402.04L447 408.031L417.939 408.031L417.939 422.816C417.939 425.79 418.215 428.212 418.767 430.081C419.319 431.951 420.212 433.331 421.444 434.224C422.677 435.116 424.27 435.562 426.224 435.562C428.263 435.562 429.814 435.073 430.876 434.096C431.938 433.119 432.661 431.717 433.043 429.89C433.425 428.063 433.617 425.917 433.617 423.453L433.617 418.992L446.873 418.992L446.873 421.796C446.873 429.189 445.301 435.01 442.156 439.258C439.012 443.507 433.659 445.631 426.096 445.631ZM417.939 400.638L433.617 400.638L433.617 394.01C433.617 390.951 433.447 388.38 433.107 386.298C432.766 384.217 432.065 382.645 431.004 381.582C429.942 380.52 428.263 379.989 425.969 379.989C423.76 379.989 422.081 380.499 420.934 381.519C419.787 382.538 419.001 384.259 418.576 386.681C418.152 389.103 417.939 392.438 417.939 396.687L417.939 400.638Z"/>
</svg>
